OpenSim_Sub01_CSBaseline_GRF.mot
version=1
nRows=28
nColumns=19
inDegrees=no
endheader
time	lFx	lFy	lFz	lCOPx	lCOPy	lCOPz	rFx	rFy	rFz	rCOPx	rCOPy	rCOPz	lMx	lMy	lMz	rMx	rMy	rMz
29.75000000	-58.83179496	472.03125653	27.33291979	1.19310069	0	-0.62288969	58.42782762	308.29142428	0.38102166	0.85258987	0	-0.41877656	0	-0.11688534	0	0	1.04352476	0
29.76000000	-61.11233939	487.73966099	33.91402834	1.19073561	0	-0.62382537	48.12732468	252.71236365	2.04380001	0.85242855	0	-0.41950096	0	-0.87407885	0	0	0.69575462	0.00000000
29.77000000	-61.54747519	498.79061211	38.78653770	1.18625991	0	-0.62437611	36.00568476	199.36051166	1.99489266	0.85666918	0	-0.42234027	0	-1.49078839	0	0	0.39206712	-0.00000000
29.78000000	-60.83040629	511.07364179	41.81263040	1.18023588	0	-0.62457949	23.26795383	151.45252285	1.03858268	0.86317414	0	-0.42718465	0	-1.75226191	0	0	0.17219518	0
29.79000000	-59.24967075	527.01361030	43.03831241	1.17341976	0	-0.62446723	11.40964765	111.54203113	0.01871491	0.86254770	0	-0.42946285	0	-1.54096918	0	0	0.06909839	-0.00000000
29.80000000	-57.00706065	546.36177731	42.72835034	1.16630891	0	-0.62412155	1.84207557	80.39546280	-0.57797072	0.83378517	0	-0.41619387	0	-0.87645762	0	0	0.06703226	0
29.81000000	-54.25625344	567.63152581	41.51191999	1.15917440	0	-0.62362998	-4.47672054	56.87730887	-0.74791013	0.74309518	0	-0.36576111	0	0.07877904	0	0	0.10919517	0
29.82000000	-51.03827297	588.99924447	40.35414780	1.15196197	0	-0.62306602	-7.75531903	39.31452232	-0.68124247	0.56232824	0	-0.26340414	0	1.11965571	0	0	0.16051389	0
29.83000000	-47.37704145	608.41403515	39.90015972	1.14463640	0	-0.62255960	-8.76394297	26.02135096	-0.59018788	0.32158151	0	-0.13710779	0	1.98980228	0	0	0.17040966	0.00000000
29.84000000	-43.44812419	624.14842250	40.52057168	1.13734315	0	-0.62222041	-7.95497666	15.60013537	-0.49279564	0.11786652	0	-0.04277278	0	2.45382780	0	0	0.10362425	0
29.85000000	-39.73831114	635.61689559	42.30111556	1.13022157	0	-0.62208748	-5.51270506	7.47296646	-0.32196235	0.01027491	0	0.00165366	0	2.43455237	0	0	0.03865285	0
29.86000000	-36.70202529	642.88716561	45.09559237	1.12324311	0	-0.62209258	-2.55347591	2.00524093	-0.14805270	-0.02279528	0	0.01261408	0	2.01262050	0	0	0.00385284	-0.00000000
29.87000000	-34.48599151	646.35788013	48.41158021	1.11637096	0	-0.62214395	-0.70307515	-0.50123511	0.04405373	-0.02109838	0	0.00973952	0	1.36242170	0	0	-0.00708554	0.00000000
29.88000000	-32.99095496	646.58780114	51.49155496	1.10962955	0	-0.62212579	-0.00824922	-0.98399150	0.16010406	-0.01100819	0	0.00453014	0	0.67037014	0	0	-0.00673190	0.00000000
29.89000000	-32.00869829	644.20237548	53.57729548	1.10326918	0	-0.62199084	0.04702321	-0.59073595	0.07332321	-0.00331608	0	0.00108589	0	0.08564228	0	0	-0.00356193	0.00000000
29.90000000	-31.17713342	639.76183620	54.11317551	1.09720183	0	-0.62168962	-0.04937468	-0.12365699	-0.01917220	0.00022806	0	-0.00031872	0	-0.25986848	0	0	-0.00109802	-0.00000000
29.91000000	-29.99397660	634.06435939	53.01616825	1.09107627	0	-0.62120896	-0.14839248	0.06977856	0.03721090	0.00105849	0	-0.00054348	0	-0.32317925	0	0	0.00005360	-0.00000000
29.92000000	-28.08009308	628.06863680	50.65209274	1.08473589	0	-0.62059797	-0.20268650	0.04186931	0.01435078	0.00079373	0	-0.00035437	0	-0.15793159	0	0	0.00033281	-0.00000000
29.93000000	-25.39388973	622.53140122	47.60348058	1.07829908	0	-0.61995631	-0.23017306	-0.06036414	0.04442495	0.00036114	0	-0.00014253	0	0.16737668	0	0	0.00025434	0.00000000
29.94000000	-22.33696983	617.74202946	44.63538211	1.07175044	0	-0.61940658	-0.21408300	-0.16647974	0.21185443	0.00008201	0	-0.00002153	0	0.58100280	0	0	0.00011740	0.00000000
29.95000000	-19.31092335	613.35576294	42.41004893	1.06503127	0	-0.61900192	-0.15543116	-0.18512763	0.21039584	-0.00002909	0	0.00002022	0	0.90097853	0	0	0.00002763	0.00000000
29.96000000	-16.55815592	609.10457421	41.15797708	1.05833943	0	-0.61872920	-0.10144149	-0.13022293	0.08659271	-0.00004509	0	0.00002199	0	0.99524476	0	0	-0.00000867	0.00000000
29.97000000	-14.23690506	605.01481046	40.75926532	1.05203125	0	-0.61853517	-0.07428140	-0.04313949	0.01019537	-0.00002870	0	0.00001241	0	0.85035997	0	0	-0.00001428	-0.00000000
29.98000000	-12.50349468	601.21426045	40.95808092	1.04615511	0	-0.61835193	-0.04321834	0.00168636	-0.05087847	-0.00001126	0	0.00000421	0	0.52909233	0	0	-0.00000923	-0.00000000
29.99000000	-11.11443436	597.72263478	41.38906834	1.04048618	0	-0.61816257	-0.00874041	-0.00922568	-0.03967384	-0.00000151	0	0.00000012	0	0.13348424	0	0	-0.00000368	-0.00000000
30	-9.62101151	594.65954531	41.71180416	1.03475847	0	-0.61797264	0.02392660	-0.06712517	0.03875009	0.00000175	0	-0.00000101	0	-0.24880372	0	0	-0.00000054	-0.00000000
30.01000000	-7.74596414	592.33108179	41.74111855	1.02882714	0	-0.61778071	0.04741934	-0.12887058	0.11046650	0.00000181	0	-0.00000085	0	-0.55296306	0	0	0.00000054	0.00000000
30.02000000	-5.62832452	591.13713626	41.41122664	1.02297123	0	-0.61760126	0.04531636	-0.14022671	0.19343731	0.00000099	0	-0.00000041	0	-0.75579642	0	0	0.00000057	-0.00000000
